<svg width="298" height="298" xmlns="http://www.w3.org/2000/svg" xmlns:xlink="http://www.w3.org/1999/xlink" overflow="hidden"><defs><clipPath id="clip0"><rect x="491" y="211" width="298" height="298"/></clipPath><clipPath id="clip1"><rect x="537" y="257" width="205" height="205"/></clipPath><clipPath id="clip2"><rect x="537" y="257" width="205" height="205"/></clipPath><clipPath id="clip3"><rect x="537" y="257" width="205" height="205"/></clipPath></defs><g clip-path="url(#clip0)" transform="translate(-491 -211)"><path d="M492 360C492 278.262 558.262 212 640 212 721.738 212 788 278.262 788 360 788 441.738 721.738 508 640 508 558.262 508 492 441.738 492 360Z" fill="#F0F0F0" fill-rule="evenodd"/><g clip-path="url(#clip1)"><g clip-path="url(#clip2)"><g clip-path="url(#clip3)"><path d="M701 308.25C706.661 308.25 711.25 303.661 711.25 298 711.25 292.339 706.661 287.75 701 287.75L626.503 287.75C620.842 277.945 608.304 274.586 598.499 280.248 595.383 282.047 592.796 284.634 590.997 287.75L578 287.75C572.339 287.75 567.75 292.339 567.75 298 567.75 303.661 572.339 308.25 578 308.25L590.997 308.25C596.658 318.055 609.196 321.414 619.001 315.752 622.117 313.953 624.704 311.366 626.503 308.25L701 308.25ZM701 369.75C706.661 369.75 711.25 365.161 711.25 359.5 711.25 353.839 706.661 349.25 701 349.25L688.003 349.25C682.342 339.445 669.804 336.086 659.999 341.748 656.883 343.547 654.296 346.134 652.497 349.25L578 349.25C572.339 349.25 567.75 353.839 567.75 359.5 567.75 365.161 572.339 369.75 578 369.75L652.497 369.75C658.158 379.555 670.696 382.913 680.501 377.252 683.617 375.453 686.204 372.866 688.003 369.75L701 369.75ZM711.25 421C711.25 426.661 706.661 431.25 701 431.25L626.503 431.25C620.842 441.055 608.304 444.413 598.499 438.752 595.383 436.953 592.796 434.366 590.997 431.25L578 431.25C572.339 431.25 567.75 426.661 567.75 421 567.75 415.339 572.339 410.75 578 410.75L590.997 410.75C596.658 400.945 609.196 397.587 619.001 403.248 622.117 405.047 624.704 407.634 626.503 410.75L701 410.75C706.661 410.75 711.25 415.339 711.25 421Z" fill="#3b82f6" fill-opacity="0.71"/></g></g></g></g></svg>